<svg width="2160" height="530" viewBox="0 0 2160 530" fill="none" xmlns="http://www.w3.org/2000/svg">
<path d="M763.2 324.1C765.8 324.1 767.8 325.3 769.2 327.7C770.8 330.1 771.6 333.4 771.6 337.6C771.6 345.6 769.7 351.8 765.9 356.2C758.5 365.2 748 373.5 734.4 381.1C721 388.7 706.6 392.5 691.2 392.5C670.2 392.5 653.9 386.8 642.3 375.4C630.7 364 624.9 348.4 624.9 328.6C624.9 314.8 627.8 302 633.6 290.2C639.4 278.2 647.4 268.7 657.6 261.7C668 254.7 679.7 251.2 692.7 251.2C704.3 251.2 713.6 254.7 720.6 261.7C727.6 268.5 731.1 277.8 731.1 289.6C731.1 303.4 726.1 315.3 716.1 325.3C706.3 335.1 689.6 342.9 666 348.7C671 357.9 680.5 362.5 694.5 362.5C703.5 362.5 713.7 359.4 725.1 353.2C736.7 346.8 746.7 338.5 755.1 328.3C757.5 325.5 760.2 324.1 763.2 324.1ZM687.6 280.6C680.2 280.6 673.9 284.9 668.7 293.5C663.7 302.1 661.2 312.5 661.2 324.7V325.3C673 322.5 682.3 318.3 689.1 312.7C695.9 307.1 699.3 300.6 699.3 293.2C699.3 289.4 698.2 286.4 696 284.2C694 281.8 691.2 280.6 687.6 280.6ZM802.973 399.1C792.573 399.1 784.573 396.7 778.973 391.9C773.573 387.1 770.873 381.7 770.873 375.7C770.873 370.5 772.773 366 776.573 362.2C780.373 358.4 785.973 356.5 793.373 356.5C795.973 356.5 798.973 356.8 802.373 357.4C805.973 357.8 808.673 358.1 810.473 358.3C810.273 353.1 809.073 348.2 806.873 343.6C804.873 339 802.273 334.6 799.073 330.4C795.873 326 792.873 322.2 790.073 319C783.873 330.8 777.673 340.6 771.473 348.4C765.473 356.2 758.873 363.6 751.673 370.6C748.073 374.2 744.273 376 740.273 376C737.073 376 734.473 374.9 732.473 372.7C730.473 370.3 729.473 367.4 729.473 364C729.473 360 730.873 356.3 733.673 352.9L737.573 348.1C748.573 334.5 756.873 323.3 762.473 314.5C765.873 308.7 769.873 301 774.473 291.4C779.073 281.6 783.573 271.5 787.973 261.1C791.773 252.3 799.673 247.9 811.673 247.9C817.273 247.9 821.173 248.4 823.373 249.4C825.573 250.4 826.673 252 826.673 254.2C826.673 255.4 826.273 257.3 825.473 259.9C824.673 262.5 823.573 265.1 822.173 267.7C818.573 274.9 816.773 281 816.773 286C816.773 289 817.773 292.3 819.773 295.9C821.973 299.5 825.273 304 829.673 309.4C836.073 317.8 840.873 325 844.073 331C847.473 336.8 849.173 343.2 849.173 350.2C849.173 352.2 848.973 355 848.573 358.6C858.373 354.8 869.873 344.7 883.073 328.3C885.473 325.5 888.173 324.1 891.173 324.1C893.773 324.1 895.773 325.3 897.173 327.7C898.773 330.1 899.573 333.4 899.573 337.6C899.573 345.2 897.673 351.4 893.873 356.2C883.873 368.6 874.273 377.1 865.073 381.7C856.073 386.1 844.873 388.5 831.473 388.9C823.473 395.7 813.973 399.1 802.973 399.1ZM914.501 231.4C906.101 231.4 899.801 229.5 895.601 225.7C891.401 221.7 889.301 216.2 889.301 209.2C889.301 202.2 892.001 196.4 897.401 191.8C903.001 187 909.901 184.6 918.101 184.6C925.501 184.6 931.501 186.4 936.101 190C940.701 193.6 943.001 198.7 943.001 205.3C943.001 213.3 940.401 219.7 935.201 224.5C930.001 229.1 923.101 231.4 914.501 231.4ZM912.101 392.5C899.101 392.5 889.601 387.9 883.601 378.7C877.801 369.5 874.901 357.3 874.901 342.1C874.901 333.1 876.001 321.6 878.201 307.6C880.601 293.4 883.601 280.2 887.201 268C889.001 261.6 891.401 257.2 894.401 254.8C897.401 252.4 902.201 251.2 908.801 251.2C919.001 251.2 924.101 254.6 924.101 261.4C924.101 266.4 922.201 278 918.401 296.2C913.601 318.2 911.201 333.1 911.201 340.9C911.201 346.9 912.001 351.5 913.601 354.7C915.201 357.9 917.901 359.5 921.701 359.5C925.301 359.5 929.801 357 935.201 352C940.601 347 947.801 339.1 956.801 328.3C959.201 325.5 961.901 324.1 964.901 324.1C967.501 324.1 969.501 325.3 970.901 327.7C972.501 330.1 973.301 333.4 973.301 337.6C973.301 345.6 971.401 351.8 967.601 356.2C947.801 380.4 929.301 392.5 912.101 392.5ZM1102.63 324.7C1105.23 324.7 1107.23 326 1108.63 328.6C1110.23 331 1111.03 334.1 1111.03 337.9C1111.03 342.5 1110.33 346.1 1108.93 348.7C1107.53 351.3 1105.33 353.6 1102.33 355.6C1085.13 367.2 1072.53 375.8 1064.53 381.4L1045.33 394.3C1037.73 435.7 1027.73 468.2 1015.33 491.8C1003.13 515.6 987.529 527.5 968.529 527.5C958.329 527.5 950.029 524.3 943.629 517.9C937.229 511.7 934.029 503.5 934.029 493.3C934.029 479.1 939.629 463.8 950.829 447.4C962.029 431.2 983.029 411.2 1013.83 387.4L1015.63 375.7C1012.23 381.1 1007.73 385.3 1002.13 388.3C996.729 391.1 991.329 392.5 985.929 392.5C973.529 392.5 963.629 388 956.229 379C948.829 370 945.129 358.2 945.129 343.6C945.129 327.6 948.829 312.5 956.229 298.3C963.629 283.9 973.429 272.4 985.629 263.8C998.029 255 1011.13 250.6 1024.93 250.6C1029.33 250.6 1032.23 251.5 1033.63 253.3C1035.23 254.9 1036.53 257.9 1037.53 262.3C1041.33 261.5 1045.73 261.1 1050.73 261.1C1055.73 261.1 1059.23 261.9 1061.23 263.5C1063.43 264.9 1064.53 267.8 1064.53 272.2C1064.53 274.6 1064.43 276.5 1064.23 277.9C1063.43 284.1 1060.93 299.8 1056.73 325C1055.93 329.8 1055.03 335.1 1054.03 340.9C1053.23 346.5 1052.33 352.5 1051.33 358.9C1066.73 346.9 1081.53 336.3 1095.73 327.1C1098.33 325.5 1100.63 324.7 1102.63 324.7ZM996.729 362.2C1001.33 362.2 1005.73 359.4 1009.93 353.8C1014.13 348.2 1017.13 340.2 1018.93 329.8L1028.53 278.5C1020.33 278.7 1012.73 281.9 1005.73 288.1C998.729 294.1 993.129 302.1 988.929 312.1C984.729 322.1 982.629 332.7 982.629 343.9C982.629 350.1 983.829 354.7 986.229 357.7C988.829 360.7 992.329 362.2 996.729 362.2ZM971.829 498.4C976.829 498.4 982.429 492.4 988.629 480.4C995.029 468.4 1001.13 449.3 1006.93 423.1C991.529 436.3 980.429 448.2 973.629 458.8C966.829 469.4 963.429 478.7 963.429 486.7C963.429 490.1 964.029 492.9 965.229 495.1C966.629 497.3 968.829 498.4 971.829 498.4ZM1110.66 392.5C1103.06 392.5 1097.66 388.5 1094.46 380.5C1091.46 372.5 1089.96 359.7 1089.96 342.1C1089.96 316.1 1093.66 291.4 1101.06 268C1102.86 262.2 1105.76 258 1109.76 255.4C1113.96 252.6 1119.76 251.2 1127.16 251.2C1131.16 251.2 1133.96 251.7 1135.56 252.7C1137.16 253.7 1137.96 255.6 1137.96 258.4C1137.96 261.6 1136.46 268.8 1133.46 280C1131.46 288 1129.86 295 1128.66 301C1127.46 307 1126.46 314.4 1125.66 323.2C1132.26 306 1139.66 292 1147.86 281.2C1156.06 270.4 1164.06 262.7 1171.86 258.1C1179.86 253.5 1187.16 251.2 1193.76 251.2C1200.16 251.2 1204.96 252.9 1208.16 256.3C1211.56 259.5 1213.26 264.3 1213.26 270.7C1213.26 275.9 1212.16 285.7 1209.96 300.1C1207.96 312.3 1206.36 323.9 1205.16 334.9C1203.96 345.7 1203.36 357.8 1203.36 371.2C1203.36 378.8 1201.76 384.3 1198.56 387.7C1195.56 390.9 1190.56 392.5 1183.56 392.5C1176.96 392.5 1172.16 390.8 1169.16 387.4C1166.16 384 1164.66 378.9 1164.66 372.1C1164.66 364.1 1166.06 350.9 1168.86 332.5C1171.26 316.5 1172.46 306.3 1172.46 301.9C1172.46 298.7 1171.36 297.1 1169.16 297.1C1166.56 297.1 1162.86 300.5 1158.06 307.3C1153.46 313.9 1148.66 322.7 1143.66 333.7C1138.86 344.7 1134.96 356.3 1131.96 368.5C1129.76 377.9 1127.16 384.3 1124.16 387.7C1121.36 390.9 1116.86 392.5 1110.66 392.5Z" fill="black"/>
<path d="M1363.85 191.177L1247.95 255.165C1246.09 256.197 1244.59 257.476 1243.56 258.916C1242.53 260.356 1242 261.921 1242 263.506C1242 265.091 1242.53 266.657 1243.56 268.096C1244.59 269.536 1246.09 270.815 1247.95 271.847L1363.85 335.835C1374.91 341.942 1392 336.879 1392 327.494V199.5C1392 190.115 1374.91 185.052 1363.85 191.177Z" fill="#FFD200"/>
<path d="M1521.4 406.5C1509.8 406.5 1496.7 405.5 1482.1 403.5C1474.1 402.5 1468.6 400.4 1465.6 397.2C1462.6 394 1461.3 388.8 1461.7 381.6C1463.1 361.8 1466.4 337.4 1471.6 308.4C1476.8 279.2 1483.1 251.1 1490.5 224.1C1491.9 219.1 1494.7 215.6 1498.9 213.6C1503.1 211.6 1508.6 210.6 1515.4 210.6C1527.6 210.6 1533.7 214 1533.7 220.8C1533.7 223.6 1533.1 226.8 1531.9 230.4C1526.7 246.4 1521.5 267.9 1516.3 294.9C1511.1 321.7 1507.4 347.3 1505.2 371.7C1511.2 372.3 1518 372.6 1525.6 372.6C1560.6 372.6 1586.7 362 1603.9 340.8C1621.3 319.6 1630 291.3 1630 255.9C1630 232.1 1623.2 213.7 1609.6 200.7C1596 187.7 1576.8 181.2 1552 181.2C1536 181.2 1520.1 183.7 1504.3 188.7C1488.7 193.7 1474.6 200.3 1462 208.5C1459.4 210.3 1456.6 211.2 1453.6 211.2C1450.2 211.2 1447.5 209.8 1445.5 207C1443.5 204 1442.5 200.4 1442.5 196.2C1442.5 191.4 1443.3 187.5 1444.9 184.5C1446.5 181.3 1449.2 178.4 1453 175.8C1466.8 166.4 1483 159.3 1501.6 154.5C1520.2 149.5 1538.1 147 1555.3 147C1579.7 147 1600.8 151.3 1618.6 159.9C1636.4 168.3 1650.1 180.7 1659.7 197.1C1669.3 213.5 1674.1 233.3 1674.1 256.5C1674.1 286.7 1668.1 313.1 1656.1 335.7C1644.1 358.1 1626.6 375.5 1603.6 387.9C1580.6 400.3 1553.2 406.5 1521.4 406.5ZM1827.98 338.1C1830.58 338.1 1832.58 339.3 1833.98 341.7C1835.58 344.1 1836.38 347.4 1836.38 351.6C1836.38 359.6 1834.48 365.8 1830.68 370.2C1823.28 379.2 1812.78 387.5 1799.18 395.1C1785.78 402.7 1771.38 406.5 1755.98 406.5C1734.98 406.5 1718.68 400.8 1707.08 389.4C1695.48 378 1689.68 362.4 1689.68 342.6C1689.68 328.8 1692.58 316 1698.38 304.2C1704.18 292.2 1712.18 282.7 1722.38 275.7C1732.78 268.7 1744.48 265.2 1757.48 265.2C1769.08 265.2 1778.38 268.7 1785.38 275.7C1792.38 282.5 1795.88 291.8 1795.88 303.6C1795.88 317.4 1790.88 329.3 1780.88 339.3C1771.08 349.1 1754.38 356.9 1730.78 362.7C1735.78 371.9 1745.28 376.5 1759.28 376.5C1768.28 376.5 1778.48 373.4 1789.88 367.2C1801.48 360.8 1811.48 352.5 1819.88 342.3C1822.28 339.5 1824.98 338.1 1827.98 338.1ZM1752.38 294.6C1744.98 294.6 1738.68 298.9 1733.48 307.5C1728.48 316.1 1725.98 326.5 1725.98 338.7V339.3C1737.78 336.5 1747.08 332.3 1753.88 326.7C1760.68 321.1 1764.08 314.6 1764.08 307.2C1764.08 303.4 1762.98 300.4 1760.78 298.2C1758.78 295.8 1755.98 294.6 1752.38 294.6ZM1846.42 406.5C1838.02 406.5 1831.42 403.4 1826.62 397.2C1821.82 390.8 1818.82 380.6 1817.62 366.6C1815.22 338.6 1814.02 314.1 1814.02 293.1V282.6C1814.22 276 1816.02 271.4 1819.42 268.8C1822.82 266.2 1827.92 264.9 1834.72 264.9C1839.92 264.9 1843.72 266.1 1846.12 268.5C1848.72 270.7 1850.02 274.5 1850.02 279.9C1850.02 302.9 1851.42 332.8 1854.22 369.6C1862.82 354.8 1870.22 341.3 1876.42 329.1C1882.82 316.7 1889.72 300.4 1897.12 280.2C1899.32 274.2 1902.22 270.2 1905.82 268.2C1909.42 266 1913.92 264.9 1919.32 264.9C1930.32 264.9 1935.82 268.4 1935.82 275.4C1935.82 277.8 1935.02 281.1 1933.42 285.3C1917.22 323.1 1901.92 353.6 1887.52 376.8C1880.52 388.2 1873.82 396 1867.42 400.2C1861.02 404.4 1854.02 406.5 1846.42 406.5Z" fill="black"/>
<path d="M2038.15 191.177L2154.05 255.165C2155.91 256.197 2157.41 257.476 2158.44 258.916C2159.47 260.356 2160 261.921 2160 263.506C2160 265.091 2159.47 266.657 2158.44 268.096C2157.41 269.536 2155.91 270.815 2154.05 271.847L2038.15 335.835C2027.09 341.942 2010 336.879 2010 327.494V199.5C2010 190.115 2027.09 185.052 2038.15 191.177Z" fill="#FFD200"/>
<rect x="40.5353" y="43.4632" width="133.001" height="116.717" transform="rotate(4.58871 40.5353 43.4632)" fill="white"/>
<rect x="40.5353" y="43.4632" width="133.001" height="116.717" transform="rotate(4.58871 40.5353 43.4632)" stroke="#9C2090" stroke-width="14"/>
<rect x="17.8002" y="326.734" width="133.001" height="116.717" transform="rotate(4.58871 17.8002 326.734)" fill="white"/>
<rect x="17.8002" y="326.734" width="133.001" height="116.717" transform="rotate(4.58871 17.8002 326.734)" stroke="#9C2090" stroke-width="14"/>
<rect x="486.841" y="79.2827" width="133.001" height="116.717" transform="rotate(4.58871 486.841 79.2827)" fill="white"/>
<rect x="486.841" y="79.2827" width="133.001" height="116.717" transform="rotate(4.58871 486.841 79.2827)" stroke="#9C2090" stroke-width="14"/>
<rect x="464.106" y="362.554" width="133.001" height="116.717" transform="rotate(4.58871 464.106 362.554)" fill="white"/>
<rect x="464.106" y="362.554" width="133.001" height="116.717" transform="rotate(4.58871 464.106 362.554)" stroke="#9C2090" stroke-width="14"/>
<rect x="93.3381" y="159.455" width="20.09" height="178.06" transform="rotate(4.58871 93.3381 159.455)" fill="#9C2090"/>
<rect x="548.861" y="196.645" width="20.09" height="179.754" transform="rotate(4.58871 548.861 196.645)" fill="#9C2090"/>
<path d="M162.758 108.81L489.971 135.072" stroke="#9C2090" stroke-width="17"/>
<path d="M137.735 401.525L460.956 427.467" stroke="#9C2090" stroke-width="17"/>
<path d="M297.4 395.5C285.8 395.5 272.7 394.5 258.1 392.5C250.1 391.5 244.6 389.4 241.6 386.2C238.6 383 237.3 377.8 237.7 370.6C239.1 350.8 242.4 326.4 247.6 297.4C252.8 268.2 259.1 240.1 266.5 213.1C267.9 208.1 270.7 204.6 274.9 202.6C279.1 200.6 284.6 199.6 291.4 199.6C303.6 199.6 309.7 203 309.7 209.8C309.7 212.6 309.1 215.8 307.9 219.4C302.7 235.4 297.5 256.9 292.3 283.9C287.1 310.7 283.4 336.3 281.2 360.7C287.2 361.3 294 361.6 301.6 361.6C336.6 361.6 362.7 351 379.9 329.8C397.3 308.6 406 280.3 406 244.9C406 221.1 399.2 202.7 385.6 189.7C372 176.7 352.8 170.2 328 170.2C312 170.2 296.1 172.7 280.3 177.7C264.7 182.7 250.6 189.3 238 197.5C235.4 199.3 232.6 200.2 229.6 200.2C226.2 200.2 223.5 198.8 221.5 196C219.5 193 218.5 189.4 218.5 185.2C218.5 180.4 219.3 176.5 220.9 173.5C222.5 170.3 225.2 167.4 229 164.8C242.8 155.4 259 148.3 277.6 143.5C296.2 138.5 314.1 136 331.3 136C355.7 136 376.8 140.3 394.6 148.9C412.4 157.3 426.1 169.7 435.7 186.1C445.3 202.5 450.1 222.3 450.1 245.5C450.1 275.7 444.1 302.1 432.1 324.7C420.1 347.1 402.6 364.5 379.6 376.9C356.6 389.3 329.2 395.5 297.4 395.5Z" fill="black"/>
</svg>
